<?xml version="1.0" encoding="UTF-8"?>
<svg id="Layer_1" data-name="Layer 1" xmlns="http://www.w3.org/2000/svg" viewBox="0 0 47.77 52.19">
  <defs>
    <style>
      .cls-1 {
        fill: #435ebe;
      }

      .cls-2 {
        fill: #41bbdd;
      }
    </style>
  </defs>
  <g>
    <g>
      <path class="cls-2" d="M30.78,17.81c.01,.06,.02,.11,.03,.17-.03,.07-.02,.13,.04,.18,.02,.15,.02,.31,.09,.45-.03,.06-.01,.1,.03,.14,0,.05,.02,.1,.03,.15-.06,.09,.1,.27-.13,.29-.19,.02-.22-.08-.24-.24-.02-.18-.18-.28-.34-.29-.19,0-.36,.07-.37,.31,0,.05,.01,.1,.02,.14,0,0-.01,.02-.02,.02,.01,.01,.03,.02,.04,.04,.13,.23,.25,.47,.57,.49,.21,.03,.32-.1,.39-.27,.04-.09,.08-.14,.18-.07,.26,1.29,.53,2.57,.79,3.86,.1,.47,.21,.94,.28,1.42,.32,1.96-1.27,3.66-3.24,3.48-.24-.02-.21-.16-.21-.31,0-1.32,0-2.63,0-3.95,0-.49-.04-.98-.21-1.45,.02-.08,0-.14-.06-.19-.02-.06-.04-.12-.06-.17,.02-.04,0-.06-.03-.07,0,0,0,0,0,0,0-.08,0-.15-.08-.19-.02-.05-.05-.1-.07-.16,.07-.13,.24-.07,.33-.17,.06-.06,.12-.17-.02-.17-.29,0-.35-.21-.42-.42-.02-.06,0-.15-.11-.13-.31,.04-.47-.2-.67-.36,0-.02-.01-.03-.03-.03-.04-.09-.11-.16-.21-.2,0,0-.01,0-.01,0-.04-.08-.1-.13-.19-.15-2.35-2-6.19-1.04-7.41,1.85-.27,.64-.43,1.29-.42,2,.03,1.29,0,2.58,.01,3.88,0,.28-.09,.39-.38,.4-1.98,.06-3.46-1.69-3.06-3.63,1-4.81,2.01-9.63,3.02-14.44,.18-.86,.65-1.52,1.4-1.99,.26-.16,.36-.13,.48,.15,.54,1.27,1.1,2.54,1.66,3.81,.33,.74,.89,1.14,1.7,1.14,.83,0,1.39-.42,1.72-1.17,.56-1.27,1.12-2.53,1.66-3.8,.11-.26,.21-.27,.43-.14,.87,.52,1.29,1.31,1.49,2.28,.49,2.43,1.01,4.85,1.52,7.27-.02,.1,0,.18,.06,.26Zm-.95,2.41c-.04-.05-.1-.13-.16-.2-.07-.09-.15-.18-.21-.28-.04-.07-.05-.17,.03-.22,.07-.05,.13,0,.18,.06,.12,.12,.24,.25,.37,.37,.05,.05,.11,.1,.18,.05,.08-.05,.05-.12,0-.18-.16-.2-.34-.39-.56-.52-.28-.16-.31,.21-.5,.26-.07,.02-.11,.09-.05,.16,.18,.2,.36,.4,.54,.6,.03,.04,.08,.06,.13,.03,.05-.02,.07-.06,.05-.14Zm-.47,.31c0-.22-.34-.55-.54-.52-.25,.04-.43,.19-.46,.45-.02,.2,.32,.57,.5,.57,.22,0,.51-.29,.5-.5Z"/>
      <path class="cls-2" d="M31.09,19.32c-.1-.07-.14-.02-.18,.07-.07,.17-.17,.3-.39,.27,0-.01,.02-.03,.01-.03-.2-.23-.31-.54-.62-.66,.01-.24,.19-.32,.37-.31,.16,0,.32,.11,.34,.29,.02,.16,.05,.26,.24,.24,.22-.02,.07-.2,.13-.29,.11,.12,.1,.27,.09,.42Z"/>
      <path class="cls-2" d="M27.31,20.34c.2,.16,.36,.4,.67,.36,.11-.01,.09,.07,.11,.13,.07,.2,.13,.42,.42,.42,.14,0,.08,.1,.02,.17-.09,.1-.26,.04-.33,.17-.33-.39-.69-.76-.89-1.24Z"/>
      <path class="cls-2" d="M30.78,17.81c-.06-.08-.09-.16-.06-.26,.12,.06,.1,.16,.06,.26Z"/>
      <path class="cls-2" d="M27.07,20.11c.09,.04,.17,.1,.21,.2-.13,0-.2-.06-.21-.2Z"/>
      <path class="cls-2" d="M26.86,19.95c.09,.02,.15,.08,.19,.15-.1,0-.18-.04-.19-.15Z"/>
      <path class="cls-2" d="M30.86,18.16c-.06-.05-.08-.11-.04-.18,.07,.05,.07,.11,.04,.18Z"/>
      <path class="cls-2" d="M30.98,18.75s-.06-.09-.03-.14c.07,.03,.1,.08,.03,.14Z"/>
      <path class="cls-2" d="M28.44,22.17c.05,.05,.08,.11,.06,.19-.08-.04-.09-.11-.06-.19Z"/>
      <path class="cls-2" d="M28.26,21.74c.08,.04,.09,.11,.08,.19-.07-.04-.09-.11-.08-.19Z"/>
      <path class="cls-2" d="M28.35,21.93s.05,.04,.03,.07c0-.02-.02-.05-.03-.07Z"/>
      <path class="cls-2" d="M29.83,20.22c.02,.08,0,.12-.05,.14-.05,.02-.09,0-.13-.03-.18-.2-.36-.4-.54-.6-.06-.07-.02-.14,.05-.16,.19-.05,.22-.43,.5-.26,.22,.13,.39,.33,.56,.52,.05,.06,.08,.13,0,.18-.07,.05-.13,0-.18-.05-.12-.13-.24-.25-.37-.37-.05-.05-.11-.1-.18-.06-.08,.05-.07,.15-.03,.22,.06,.1,.14,.19,.21,.28,.06,.07,.11,.15,.16,.2Z"/>
      <path class="cls-2" d="M29.35,20.52c0,.21-.28,.5-.5,.5-.18,0-.52-.37-.5-.57,.02-.27,.2-.42,.46-.45,.2-.03,.53,.3,.54,.52Zm-.42,.31c.12-.06,.21-.14,.19-.27-.03-.19-.15-.32-.35-.33-.12,0-.22,.07-.19,.2,.05,.18,.16,.33,.35,.4Z"/>
      <path class="cls-2" d="M29.92,18.97c.31,.12,.42,.43,.62,.66,0,0,0,.02-.01,.03-.32-.02-.43-.26-.57-.49,0-.02-.01-.04-.02-.06,0-.05-.01-.1-.02-.14Z"/>
      <path class="cls-2" d="M29.94,19.11s.01,.04,.02,.06c-.01-.01-.03-.02-.04-.04,0,0,.01-.02,.02-.02Z"/>
      <path class="cls-2" d="M28.94,20.83c-.19-.07-.3-.22-.35-.4-.03-.12,.07-.2,.19-.2,.2,0,.32,.14,.35,.33,.02,.13-.07,.21-.19,.27Z"/>
    </g>
    <g>
      <path class="cls-1" d="M29.02,1.79c.05,0,.11,0,.16,0,.11,.05,.21,.06,.28-.05,.55-.09,1.11-.15,1.65-.29,.51-.13,1.01-.16,1.53-.16,1.09,0,2.18,.02,3.28,.03,.45,0,.71,.2,.73,.55,.02,.34-.22,.56-.67,.61-.99,.1-1.99,.19-2.98,.29-.12,.01-.3-.05-.32,.12-.01,.09,.15,.15,.26,.2,.27,.13,.55,.27,.82,.41,.42,.21,.86,.31,1.33,.28,.48-.03,.94,.06,1.36,.29,.17,.09,.35,.2,.22,.44-.11,.2-.28,.15-.46,.06-.36-.19-.75-.3-1.15-.26-.68,.07-1.3-.1-1.89-.42-.4-.22-.76-.37-1.31-.19-1.29,.42-2.64,.65-3.97,.95-.15,.03-.24,.08-.31,.24-.71,1.84-1.56,3.62-2.33,5.43-.18,.42-.37,.84-.55,1.26-.15,.35-.41,.55-.78,.56-.4,0-.67-.2-.82-.56-.95-2.24-2-4.43-2.88-6.69-.06-.16-.16-.2-.31-.23-1.32-.3-2.63-.61-3.95-.91-.07-.02-.17,0-.2-.05-.26-.33-.51-.11-.75,.02-.76,.4-1.52,.71-2.42,.61-.36-.04-.72,.1-1.04,.27-.17,.09-.32,.1-.42-.08-.11-.19,.02-.31,.17-.4,.41-.24,.85-.37,1.31-.32,.99,.11,1.76-.38,2.56-.9-.15-.11-.29-.09-.42-.11-.99-.1-1.99-.19-2.98-.29-.43-.04-.65-.27-.64-.6,.02-.33,.27-.55,.69-.54,1.47,.01,2.94-.15,4.4,.05,1.3,.17,2.59,.45,3.88,.7,.27,.05,.39,0,.53-.23,.86-1.39,2.44-2.09,3.99-1.76,.29,.06,.58,.17,.87,.25,.05,.03,.1,.06,.15,.09,.31,.2,.74,.28,.72,.79,0,.1,.1,.15,.18,.12,.31-.09,.39,.17,.52,.35,.06,.08,.21,.23-.06,.25-.11,0-.11,.11-.1,.19,0,.09,.08,.11,.15,.11,.13,0,.28,.08,.39-.06,.12,0,.2-.07,.28-.14,.25,.01,.48-.04,.71-.12,.09-.01,.18-.02,.28-.03,.13,.05,.25,.07,.33-.07Zm-7.17,1.83c-.02,1.12,.89,2.06,2.01,2.07,1.01,0,2.04-.74,2.06-2,.02-1.22-.9-2.05-1.99-2.07-1.12-.03-2.06,.88-2.07,2Z"/>
      <path class="cls-1" d="M25.48,.33s1.36,.51,1.81,1.92c0,0,1.28-.44,3.83-.79,0,0-.83,1.15-1.02,1.23s-2.57,.47-2.92,.27-.92-.43-1.07-.78-.53-1.12-.55-1.18-.09-.66-.09-.66Z"/>
    </g>
    <g>
      <path class="cls-1" d="M20.06,23.4c.21-2.14,2-3.55,3.9-3.51,1.11,.03,2.04,.47,2.79,1.29,.08,.09,.29,.19,.07,.37-.01,.01,.11,.19,.17,.3-.04,.02-.08,.05-.12,.07-.14,.07-.26,.16-.21,.35,.03,.12,.11,.22,.23,.23,.18,.01,.3-.09,.33-.28,.07,.01,.14,.02,.2,.03,0,.04,0,.05,.04,.04,.27,.78,.25,1.59,.25,2.4,0,1.48,0,2.96,0,4.44,0,1.98-1.41,3.64-3.27,3.86-2.05,.25-3.82-.96-4.3-2.96-.04-.16-.06-.32-.08-.49,0-2.05,0-4.1,0-6.14Zm6.65-1.84c-.2,.04-.23,.15-.17,.4,.11-.16,.17-.26,.23-.35,.01-.03,.05-.07,.04-.07-.04-.04-.08-.03-.1,.02Zm-.32,1.23c.11,0,.3,.04,.23-.14-.09-.23-.22-.47-.45-.61-.17-.11-.31,0-.44,.1-.1,.09-.13,.21-.06,.31,.08,.12,.21,.05,.31,.02,.24-.07,.32,.04,.34,.25-.07,.03-.12,.13-.21,.09-.07-.03-.16-.11-.15,.05,0,.09,.06,.19,.19,.15,.11-.04,.21-.1,.23-.24Zm-2.69,1.77c.12-.08,.19,.02,.28,.08,.07,.04,.14,.13,.21,.04,.07-.08-.01-.15-.07-.21-.21-.21-.42-.41-.62-.62-.06-.06-.13-.11-.21-.04-.08,.06-.12,.14-.07,.24,.09,.18,.18,.36,.26,.54,.02,.05,.08,.1,.02,.16-.07,.06-.1-.01-.15-.03-.18-.09-.35-.19-.53-.28-.12-.06-.2,0-.27,.08-.07,.09-.02,.16,.04,.22,.23,.23,.47,.46,.71,.68,.05,.05,.13,.08,.19,.01,.06-.07,0-.13-.03-.19-.06-.1-.21-.14-.21-.29,.24-.09,.42,.28,.61,.09,.17-.17-.17-.3-.15-.48Zm.89-2.02c-.13,.05-.16,.12-.1,.2,.22,.3,.41,.62,.68,.89,.06,.06,.11,.09,.2,.03,.11-.08,.04-.13,0-.19-.07-.09-.14-.19-.21-.28-.08-.11-.17-.24-.05-.34,.15-.11,.25,.03,.33,.14,.09,.11,.17,.23,.25,.34,.03,.04,.06,.07,.11,.03,.03-.03,.08-.07,.08-.11,.02-.12-.49-.69-.62-.68-.23,.03-.47,.4-.66-.04Zm.42,1.36c-.08-.27-.33-.38-.43-.6-.05-.11-.14-.14-.23-.07-.1,.08-.04,.16,.03,.24,.09,.11,.19,.21,.26,.33,.05,.08,.04,.19-.05,.25-.08,.06-.15,0-.21-.06-.1-.1-.2-.2-.29-.3-.09-.09-.16-.05-.24,0-.13,.09,0,.14,.04,.18,.12,.13,.25,.24,.37,.37,.11,.11,.25,.11,.35,.04,.16-.11,.28-.26,.4-.37Z"/>
      <path class="cls-1" d="M26.39,20.83s1.22,.89,1.27,2.29c0,0-1.48,1.42-1.79,1.59s-2.79,1.44-2.99,1.26-.6-1.49-.62-1.77-.58-.3,.17-.88,.8-.58,1.36-.9,1.27-.85,1.62-1.08,.54-.35,.74-.39,.25-.13,.25-.13Z"/>
    </g>
  </g>
  <g>
    <path class="cls-1" d="M3.24,37.49c-.12,.22-.3,.39-.55,.52-.25,.13-.55,.2-.92,.2h-.68v1.61H0v-4.49H1.77c.36,0,.66,.06,.91,.19,.25,.12,.43,.29,.56,.51s.19,.47,.19,.75c0,.26-.06,.5-.18,.71Zm-1.09-.3c.1-.1,.15-.24,.15-.42s-.05-.32-.15-.42c-.1-.1-.26-.15-.47-.15h-.6v1.13h.6c.21,0,.36-.05,.47-.15Z"/>
    <path class="cls-1" d="M6.79,39.03h-1.68l-.27,.79h-1.15l1.63-4.49h1.27l1.63,4.49h-1.16l-.27-.79Zm-.28-.84l-.56-1.64-.55,1.64h1.11Z"/>
    <path class="cls-1" d="M9.8,38.98h1.43v.84h-2.53v-4.49h1.09v3.65Z"/>
    <path class="cls-1" d="M12.72,39.58c-.35-.2-.63-.47-.84-.82-.21-.35-.31-.75-.31-1.19s.1-.83,.31-1.18c.21-.35,.49-.62,.84-.82,.35-.2,.74-.29,1.16-.29s.81,.1,1.16,.29c.35,.2,.63,.47,.83,.82s.3,.74,.3,1.18-.1,.84-.31,1.19c-.2,.35-.48,.63-.83,.82s-.74,.29-1.16,.29-.81-.1-1.16-.29Zm2.02-1.06c.22-.24,.32-.55,.32-.95s-.11-.71-.32-.95c-.22-.24-.5-.36-.86-.36s-.65,.12-.87,.35c-.22,.23-.32,.55-.32,.95s.11,.71,.32,.95c.22,.24,.5,.36,.87,.36s.65-.12,.86-.36Z"/>
    <path class="cls-1" d="M20.03,37.49c-.12,.22-.3,.39-.55,.52-.25,.13-.55,.2-.92,.2h-.68v1.61h-1.09v-4.49h1.77c.36,0,.66,.06,.91,.19,.25,.12,.43,.29,.56,.51,.12,.22,.19,.47,.19,.75,0,.26-.06,.5-.18,.71Zm-1.09-.3c.1-.1,.15-.24,.15-.42s-.05-.32-.15-.42c-.1-.1-.26-.15-.47-.15h-.6v1.13h.6c.21,0,.36-.05,.47-.15Z"/>
    <path class="cls-1" d="M21.74,39.58c-.35-.2-.63-.47-.84-.82-.21-.35-.31-.75-.31-1.19s.1-.83,.31-1.18c.21-.35,.49-.62,.84-.82s.74-.29,1.16-.29,.81,.1,1.16,.29c.35,.2,.63,.47,.83,.82,.2,.35,.3,.74,.3,1.18s-.1,.84-.31,1.19c-.21,.35-.48,.63-.83,.82-.35,.2-.74,.29-1.16,.29s-.81-.1-1.16-.29Zm2.02-1.06c.22-.24,.32-.55,.32-.95s-.11-.71-.32-.95c-.22-.24-.5-.36-.86-.36s-.65,.12-.87,.35c-.22,.23-.32,.55-.32,.95s.11,.71,.32,.95c.22,.24,.5,.36,.87,.36s.65-.12,.86-.36Z"/>
    <path class="cls-1" d="M31.38,35.33l-1.59,4.49h-1.37l-1.59-4.49h1.16l1.11,3.39,1.12-3.39h1.16Z"/>
    <path class="cls-1" d="M32.93,36.21v.91h1.47v.84h-1.47v.99h1.66v.88h-2.75v-4.49h2.75v.88h-1.66Z"/>
    <path class="cls-1" d="M36.04,39.71c-.26-.11-.47-.26-.62-.47-.16-.21-.24-.46-.25-.75h1.16c.02,.17,.07,.29,.17,.38s.23,.13,.38,.13,.29-.04,.38-.11c.09-.07,.14-.18,.14-.31,0-.11-.04-.2-.11-.28-.07-.07-.17-.13-.27-.18-.11-.05-.26-.1-.46-.16-.29-.09-.53-.18-.71-.27s-.34-.22-.47-.4c-.13-.17-.2-.4-.2-.68,0-.42,.15-.75,.45-.98s.7-.36,1.18-.36,.89,.12,1.2,.36,.46,.57,.49,.99h-1.18c0-.14-.06-.26-.16-.34-.1-.08-.22-.12-.38-.12-.13,0-.24,.04-.32,.11s-.12,.17-.12,.3c0,.14,.07,.26,.21,.34,.14,.08,.35,.17,.64,.26,.29,.1,.53,.19,.71,.28s.34,.22,.47,.39c.13,.17,.2,.39,.2,.66s-.06,.49-.19,.7c-.13,.21-.32,.38-.57,.5-.25,.12-.54,.19-.88,.19s-.62-.05-.88-.16Z"/>
    <path class="cls-1" d="M42.48,37.49c-.12,.22-.3,.39-.55,.52-.25,.13-.56,.2-.92,.2h-.68v1.61h-1.09v-4.49h1.77c.36,0,.66,.06,.91,.19,.25,.12,.43,.29,.56,.51s.19,.47,.19,.75c0,.26-.06,.5-.18,.71Zm-1.09-.3c.1-.1,.15-.24,.15-.42s-.05-.32-.15-.42c-.1-.1-.26-.15-.47-.15h-.59v1.13h.59c.21,0,.36-.05,.47-.15Z"/>
    <path class="cls-1" d="M46.02,39.03h-1.68l-.27,.79h-1.15l1.63-4.49h1.27l1.63,4.49h-1.16l-.27-.79Zm-.28-.84l-.56-1.64-.55,1.64h1.11Z"/>
    <path class="cls-1" d="M.73,44.35c.43-.78,1.03-1.39,1.81-1.83,.77-.44,1.65-.66,2.63-.66,1.2,0,2.23,.32,3.08,.95,.85,.63,1.43,1.5,1.71,2.59h-2.71c-.2-.42-.49-.74-.86-.96s-.79-.33-1.26-.33c-.76,0-1.37,.26-1.84,.79-.47,.53-.71,1.23-.71,2.12s.24,1.59,.71,2.12c.47,.53,1.08,.79,1.84,.79,.47,0,.89-.11,1.26-.33s.66-.54,.86-.96h2.71c-.29,1.09-.86,1.96-1.71,2.58-.85,.63-1.88,.94-3.08,.94-.98,0-1.85-.22-2.63-.66-.77-.44-1.37-1.04-1.81-1.82s-.65-1.67-.65-2.66,.22-1.89,.65-2.67Z"/>
    <path class="cls-1" d="M17.67,50.19h3.23v1.9h-5.69v-10.11h2.46v8.21Z"/>
    <path class="cls-1" d="M28.24,41.98v6.05c0,.6,.15,1.07,.45,1.4,.3,.33,.73,.49,1.31,.49s1.02-.16,1.32-.49c.31-.33,.46-.79,.46-1.4v-6.05h2.46v6.03c0,.9-.19,1.67-.58,2.29-.38,.62-.9,1.09-1.55,1.41s-1.37,.48-2.17,.48-1.51-.16-2.14-.47c-.63-.31-1.12-.78-1.49-1.41-.37-.63-.55-1.39-.55-2.3v-6.03h2.46Z"/>
    <path class="cls-1" d="M47.24,47.78c.36,.46,.53,.98,.53,1.56,0,.84-.29,1.51-.89,2.01-.59,.49-1.41,.74-2.47,.74h-4.71v-10.11h4.55c1.03,0,1.83,.24,2.41,.71,.58,.47,.87,1.11,.87,1.91,0,.6-.16,1.09-.47,1.48-.31,.39-.73,.67-1.25,.82,.59,.12,1.06,.41,1.41,.87Zm-5.07-1.71h1.61c.4,0,.71-.09,.93-.27,.22-.18,.32-.44,.32-.78s-.11-.61-.32-.79c-.22-.18-.53-.27-.93-.27h-1.61v2.12Zm2.77,3.75c.22-.19,.34-.46,.34-.81s-.12-.63-.35-.83-.56-.3-.97-.3h-1.78v2.23h1.81c.41,0,.73-.09,.96-.28Z"/>
  </g>
</svg>