<?xml version="1.0" encoding="UTF-8"?>
<svg id="Layer_1" data-name="Layer 1" xmlns="http://www.w3.org/2000/svg" viewBox="0 0 25.64 33.04">
  <defs>
    <style>
      .cls-1 {
        fill: #435ebe;
      }

      .cls-2 {
        fill: #41bbdd;
      }
    </style>
  </defs>
  <g>
    <path class="cls-2" d="M19.71,17.83c.01,.06,.02,.11,.03,.17-.03,.07-.02,.13,.04,.18,.02,.15,.02,.31,.09,.45-.03,.06-.01,.1,.03,.14,0,.05,.02,.1,.03,.15-.06,.09,.1,.27-.13,.29-.19,.02-.22-.08-.24-.24-.02-.18-.18-.28-.34-.29-.19,0-.36,.07-.37,.31,0,.05,.01,.1,.02,.14,0,0-.01,.02-.02,.02,.01,.01,.03,.02,.04,.04,.13,.23,.25,.47,.57,.49,.21,.03,.32-.1,.39-.27,.04-.09,.08-.14,.18-.07,.26,1.29,.53,2.57,.79,3.86,.1,.47,.21,.94,.28,1.42,.32,1.96-1.27,3.66-3.24,3.48-.24-.02-.21-.16-.21-.31,0-1.32,0-2.63,0-3.95,0-.49-.04-.98-.21-1.45,.02-.08,0-.14-.06-.19-.02-.06-.04-.12-.06-.17,.02-.04,0-.06-.03-.07,0,0,0,0,0,0,0-.08,0-.15-.08-.19-.02-.05-.05-.1-.07-.16,.07-.13,.24-.07,.33-.17,.06-.06,.12-.17-.02-.17-.29,0-.35-.21-.42-.42-.02-.06,0-.15-.11-.13-.31,.04-.47-.2-.67-.36,0-.02-.01-.03-.03-.03-.04-.09-.11-.16-.21-.2,0,0-.01,0-.01,0-.04-.08-.1-.13-.19-.15-2.35-2-6.19-1.04-7.41,1.85-.27,.64-.43,1.29-.42,2,.03,1.29,0,2.58,.01,3.88,0,.28-.09,.39-.38,.4-1.98,.06-3.46-1.69-3.06-3.63,1-4.81,2.01-9.63,3.02-14.44,.18-.86,.65-1.52,1.4-1.99,.26-.16,.36-.13,.48,.15,.54,1.27,1.1,2.54,1.66,3.81,.33,.74,.89,1.14,1.7,1.14,.83,0,1.39-.42,1.72-1.17,.56-1.27,1.12-2.53,1.66-3.8,.11-.26,.21-.27,.43-.14,.87,.52,1.29,1.31,1.49,2.28,.49,2.43,1.01,4.85,1.52,7.27-.02,.1,0,.18,.06,.26Zm-.95,2.41c-.04-.05-.1-.13-.16-.2-.07-.09-.15-.18-.21-.28-.04-.07-.05-.17,.03-.22,.07-.05,.13,0,.18,.06,.12,.12,.24,.25,.37,.37,.05,.05,.11,.1,.18,.05,.08-.05,.05-.12,0-.18-.16-.2-.34-.39-.56-.52-.28-.16-.31,.21-.5,.26-.07,.02-.11,.09-.05,.16,.18,.2,.36,.4,.54,.6,.03,.04,.08,.06,.13,.03,.05-.02,.07-.06,.05-.14Zm-.47,.31c0-.22-.34-.55-.54-.52-.25,.04-.43,.19-.46,.45-.02,.2,.32,.57,.5,.57,.22,0,.51-.29,.5-.5Z"/>
    <path class="cls-2" d="M20.02,19.33c-.1-.07-.14-.02-.18,.07-.07,.17-.17,.3-.39,.27,0-.01,.02-.03,.01-.03-.2-.23-.31-.54-.62-.66,.01-.24,.19-.32,.37-.31,.16,0,.32,.11,.34,.29,.02,.16,.05,.26,.24,.24,.22-.02,.07-.2,.13-.29,.11,.12,.1,.27,.09,.42Z"/>
    <path class="cls-2" d="M16.23,20.36c.2,.16,.36,.4,.67,.36,.11-.01,.09,.07,.11,.13,.07,.2,.13,.42,.42,.42,.14,0,.08,.1,.02,.17-.09,.1-.26,.04-.33,.17-.33-.39-.69-.76-.89-1.24Z"/>
    <path class="cls-2" d="M19.71,17.83c-.06-.08-.09-.16-.06-.26,.12,.06,.1,.16,.06,.26Z"/>
    <path class="cls-2" d="M15.99,20.13c.09,.04,.17,.1,.21,.2-.13,0-.2-.06-.21-.2Z"/>
    <path class="cls-2" d="M15.79,19.97c.09,.02,.15,.08,.19,.15-.1,0-.18-.04-.19-.15Z"/>
    <path class="cls-2" d="M19.78,18.18c-.06-.05-.08-.11-.04-.18,.07,.05,.07,.11,.04,.18Z"/>
    <path class="cls-2" d="M19.91,18.76s-.06-.09-.03-.14c.07,.03,.1,.08,.03,.14Z"/>
    <path class="cls-2" d="M17.37,22.19c.05,.05,.08,.11,.06,.19-.08-.04-.09-.11-.06-.19Z"/>
    <path class="cls-2" d="M17.19,21.75c.08,.04,.09,.11,.08,.19-.07-.04-.09-.11-.08-.19Z"/>
    <path class="cls-2" d="M17.27,21.94s.05,.04,.03,.07c0-.02-.02-.05-.03-.07Z"/>
    <path class="cls-2" d="M18.76,20.23c.02,.08,0,.12-.05,.14-.05,.02-.09,0-.13-.03-.18-.2-.36-.4-.54-.6-.06-.07-.02-.14,.05-.16,.19-.05,.22-.43,.5-.26,.22,.13,.39,.33,.56,.52,.05,.06,.08,.13,0,.18-.07,.05-.13,0-.18-.05-.12-.13-.24-.25-.37-.37-.05-.05-.11-.1-.18-.06-.08,.05-.07,.15-.03,.22,.06,.1,.14,.19,.21,.28,.06,.07,.11,.15,.16,.2Z"/>
    <path class="cls-2" d="M18.28,20.54c0,.21-.28,.5-.5,.5-.18,0-.52-.37-.5-.57,.02-.27,.2-.42,.46-.45,.2-.03,.53,.3,.54,.52Zm-.42,.31c.12-.06,.21-.14,.19-.27-.03-.19-.15-.32-.35-.33-.12,0-.22,.07-.19,.2,.05,.18,.16,.33,.35,.4Z"/>
    <path class="cls-2" d="M18.85,18.99c.31,.12,.42,.43,.62,.66,0,0,0,.02-.01,.03-.32-.02-.43-.26-.57-.49,0-.02-.01-.04-.02-.06,0-.05-.01-.1-.02-.14Z"/>
    <path class="cls-2" d="M18.87,19.13s.01,.04,.02,.06c-.01-.01-.03-.02-.04-.04,0,0,.01-.02,.02-.02Z"/>
    <path class="cls-2" d="M17.87,20.85c-.19-.07-.3-.22-.35-.4-.03-.12,.07-.2,.19-.2,.2,0,.32,.14,.35,.33,.02,.13-.07,.21-.19,.27Z"/>
  </g>
  <g>
    <path class="cls-1" d="M17.95,1.81c.05,0,.11,0,.16,0,.11,.05,.21,.06,.28-.05,.55-.09,1.11-.15,1.65-.29,.51-.13,1.01-.16,1.53-.16,1.09,0,2.18,.02,3.28,.03,.45,0,.71,.2,.73,.55,.02,.34-.22,.56-.67,.61-.99,.1-1.99,.19-2.98,.29-.12,.01-.3-.05-.32,.12-.01,.09,.15,.15,.26,.2,.27,.13,.55,.27,.82,.41,.42,.21,.86,.31,1.33,.28,.48-.03,.94,.06,1.36,.29,.17,.09,.35,.2,.22,.44-.11,.2-.28,.15-.46,.06-.36-.19-.75-.3-1.15-.26-.68,.07-1.3-.1-1.89-.42-.4-.22-.76-.37-1.31-.19-1.29,.42-2.64,.65-3.97,.95-.15,.03-.24,.08-.31,.24-.71,1.84-1.56,3.62-2.33,5.43-.18,.42-.37,.84-.55,1.26-.15,.35-.41,.55-.78,.56-.4,0-.67-.2-.82-.56-.95-2.24-2-4.43-2.88-6.69-.06-.16-.16-.2-.31-.23-1.32-.3-2.63-.61-3.95-.91-.07-.02-.17,0-.2-.05-.26-.33-.51-.11-.75,.02-.76,.4-1.52,.71-2.42,.61-.36-.04-.72,.1-1.04,.27-.17,.09-.32,.1-.42-.08-.11-.19,.02-.31,.17-.4,.41-.24,.85-.37,1.31-.32,.99,.11,1.76-.38,2.56-.9-.15-.11-.29-.09-.42-.11-.99-.1-1.99-.19-2.98-.29-.43-.04-.65-.27-.64-.6,.02-.33,.27-.55,.69-.54,1.47,.01,2.94-.15,4.4,.05,1.3,.17,2.59,.45,3.88,.7,.27,.05,.39,0,.53-.23C10.41,.46,11.99-.23,13.54,.09c.29,.06,.58,.17,.87,.25,.05,.03,.1,.06,.15,.09,.31,.2,.74,.28,.72,.79,0,.1,.1,.15,.18,.12,.31-.09,.39,.17,.52,.35,.06,.08,.21,.23-.06,.25-.11,0-.11,.11-.1,.19,0,.09,.08,.11,.15,.11,.13,0,.28,.08,.39-.06,.12,0,.2-.07,.28-.14,.25,.01,.48-.04,.71-.12,.09-.01,.18-.02,.28-.03,.13,.05,.25,.07,.33-.07Zm-7.17,1.83c-.02,1.12,.89,2.06,2.01,2.07,1.01,0,2.04-.74,2.06-2,.02-1.22-.9-2.05-1.99-2.07-1.12-.03-2.06,.88-2.07,2Z"/>
    <path class="cls-1" d="M14.41,.34s1.36,.51,1.81,1.92c0,0,1.28-.44,3.83-.79,0,0-.83,1.15-1.02,1.23s-2.57,.47-2.92,.27-.92-.43-1.07-.78-.53-1.12-.55-1.18-.09-.66-.09-.66Z"/>
  </g>
  <g>
    <path class="cls-1" d="M8.99,23.42c.21-2.14,2-3.55,3.9-3.51,1.11,.03,2.04,.47,2.79,1.29,.08,.09,.29,.19,.07,.37-.01,.01,.11,.19,.17,.3-.04,.02-.08,.05-.12,.07-.14,.07-.26,.16-.21,.35,.03,.12,.11,.22,.23,.23,.18,.01,.3-.09,.33-.28,.07,.01,.14,.02,.2,.03,0,.04,0,.05,.04,.04,.27,.78,.25,1.59,.25,2.4,0,1.48,0,2.96,0,4.44,0,1.98-1.41,3.64-3.27,3.86-2.05,.25-3.82-.96-4.3-2.96-.04-.16-.06-.32-.08-.49,0-2.05,0-4.1,0-6.14Zm6.65-1.84c-.2,.04-.23,.15-.17,.4,.11-.16,.17-.26,.23-.35,.01-.03,.05-.07,.04-.07-.04-.04-.08-.03-.1,.02Zm-.32,1.23c.11,0,.3,.04,.23-.14-.09-.23-.22-.47-.45-.61-.17-.11-.31,0-.44,.1-.1,.09-.13,.21-.06,.31,.08,.12,.21,.05,.31,.02,.24-.07,.32,.04,.34,.25-.07,.03-.12,.13-.21,.09-.07-.03-.16-.11-.15,.05,0,.09,.06,.19,.19,.15,.11-.04,.21-.1,.23-.24Zm-2.69,1.77c.12-.08,.19,.02,.28,.08,.07,.04,.14,.13,.21,.04,.07-.08-.01-.15-.07-.21-.21-.21-.42-.41-.62-.62-.06-.06-.13-.11-.21-.04-.08,.06-.12,.14-.07,.24,.09,.18,.18,.36,.26,.54,.02,.05,.08,.1,.02,.16-.07,.06-.1-.01-.15-.03-.18-.09-.35-.19-.53-.28-.12-.06-.2,0-.27,.08-.07,.09-.02,.16,.04,.22,.23,.23,.47,.46,.71,.68,.05,.05,.13,.08,.19,.01,.06-.07,0-.13-.03-.19-.06-.1-.21-.14-.21-.29,.24-.09,.42,.28,.61,.09,.17-.17-.17-.3-.15-.48Zm.89-2.02c-.13,.05-.16,.12-.1,.2,.22,.3,.41,.62,.68,.89,.06,.06,.11,.09,.2,.03,.11-.08,.04-.13,0-.19-.07-.09-.14-.19-.21-.28-.08-.11-.17-.24-.05-.34,.15-.11,.25,.03,.33,.14,.09,.11,.17,.23,.25,.34,.03,.04,.06,.07,.11,.03,.03-.03,.08-.07,.08-.11,.02-.12-.49-.69-.62-.68-.23,.03-.47,.4-.66-.04Zm.42,1.36c-.08-.27-.33-.38-.43-.6-.05-.11-.14-.14-.23-.07-.1,.08-.04,.16,.03,.24,.09,.11,.19,.21,.26,.33,.05,.08,.04,.19-.05,.25-.08,.06-.15,0-.21-.06-.1-.1-.2-.2-.29-.3-.09-.09-.16-.05-.24,0-.13,.09,0,.14,.04,.18,.12,.13,.25,.24,.37,.37,.11,.11,.25,.11,.35,.04,.16-.11,.28-.26,.4-.37Z"/>
    <path class="cls-1" d="M15.31,20.85s1.22,.89,1.27,2.29c0,0-1.48,1.42-1.79,1.59s-2.79,1.44-2.99,1.26-.6-1.49-.62-1.77-.58-.3,.17-.88,.8-.58,1.36-.9,1.27-.85,1.62-1.08,.54-.35,.74-.39,.25-.13,.25-.13Z"/>
  </g>
</svg>