<?xml version="1.0" encoding="UTF-8"?>
<svg id="Layer_1" data-name="Layer 1" xmlns="http://www.w3.org/2000/svg" viewBox="0 0 144.98 33.02">
  <defs>
    <style>
      .cls-1 {
        fill: #435ebe;
      }

      .cls-2 {
        fill: #41bbdd;
      }
    </style>
  </defs>
  <g>
    <path class="cls-2" d="M19.71,17.81c.01,.06,.02,.11,.03,.17-.03,.07-.02,.13,.04,.18,.02,.15,.02,.31,.09,.45-.03,.06-.01,.1,.03,.14,0,.05,.02,.1,.03,.15-.06,.09,.1,.27-.13,.29-.19,.02-.22-.08-.24-.24-.02-.18-.18-.28-.34-.29-.19,0-.36,.07-.37,.31,0,.05,.01,.1,.02,.14,0,0-.01,.02-.02,.02,.01,.01,.03,.02,.04,.04,.13,.23,.25,.47,.57,.49,.21,.03,.32-.1,.39-.27,.04-.09,.08-.14,.18-.07,.26,1.29,.53,2.57,.79,3.86,.1,.47,.21,.94,.28,1.42,.32,1.96-1.27,3.66-3.24,3.48-.24-.02-.21-.16-.21-.31,0-1.32,0-2.63,0-3.95,0-.49-.04-.98-.21-1.45,.02-.08,0-.14-.06-.19-.02-.06-.04-.12-.06-.17,.02-.04,0-.06-.03-.07,0,0,0,0,0,0,0-.08,0-.15-.08-.19-.02-.05-.05-.1-.07-.16,.07-.13,.24-.07,.33-.17,.06-.06,.12-.17-.02-.17-.29,0-.35-.21-.42-.42-.02-.06,0-.15-.11-.13-.31,.04-.47-.2-.67-.36,0-.02-.01-.03-.03-.03-.04-.09-.11-.16-.21-.2,0,0-.01,0-.01,0-.04-.08-.1-.13-.19-.15-2.35-2-6.19-1.04-7.41,1.85-.27,.64-.43,1.29-.42,2,.03,1.29,0,2.58,.01,3.88,0,.28-.09,.39-.38,.4-1.98,.06-3.46-1.69-3.06-3.63,1-4.81,2.01-9.63,3.02-14.44,.18-.86,.65-1.52,1.4-1.99,.26-.16,.36-.13,.48,.15,.54,1.27,1.1,2.54,1.66,3.81,.33,.74,.89,1.14,1.7,1.14,.83,0,1.39-.42,1.72-1.17,.56-1.27,1.12-2.53,1.66-3.8,.11-.26,.21-.27,.43-.14,.87,.52,1.29,1.31,1.49,2.28,.49,2.43,1.01,4.85,1.52,7.27-.02,.1,0,.18,.06,.26Zm-.95,2.41c-.04-.05-.1-.13-.16-.2-.07-.09-.15-.18-.21-.28-.04-.07-.05-.17,.03-.22,.07-.05,.13,0,.18,.06,.12,.12,.24,.25,.37,.37,.05,.05,.11,.1,.18,.05,.08-.05,.05-.12,0-.18-.16-.2-.34-.39-.56-.52-.28-.16-.31,.21-.5,.26-.07,.02-.11,.09-.05,.16,.18,.2,.36,.4,.54,.6,.03,.04,.08,.06,.13,.03,.05-.02,.07-.06,.05-.14Zm-.47,.31c0-.22-.34-.55-.54-.52-.25,.04-.43,.19-.46,.45-.02,.2,.32,.57,.5,.57,.22,0,.51-.29,.5-.5Z"/>
    <path class="cls-2" d="M20.02,19.32c-.1-.07-.14-.02-.18,.07-.07,.17-.17,.3-.39,.27,0-.01,.02-.03,.01-.03-.2-.23-.31-.54-.62-.66,.01-.24,.19-.32,.37-.31,.16,0,.32,.11,.34,.29,.02,.16,.05,.26,.24,.24,.22-.02,.07-.2,.13-.29,.11,.12,.1,.27,.09,.42Z"/>
    <path class="cls-2" d="M16.23,20.34c.2,.16,.36,.4,.67,.36,.11-.01,.09,.07,.11,.13,.07,.2,.13,.42,.42,.42,.14,0,.08,.1,.02,.17-.09,.1-.26,.04-.33,.17-.33-.39-.69-.76-.89-1.24Z"/>
    <path class="cls-2" d="M19.71,17.81c-.06-.08-.09-.16-.06-.26,.12,.06,.1,.16,.06,.26Z"/>
    <path class="cls-2" d="M15.99,20.11c.09,.04,.17,.1,.21,.2-.13,0-.2-.06-.21-.2Z"/>
    <path class="cls-2" d="M15.79,19.95c.09,.02,.15,.08,.19,.15-.1,0-.18-.04-.19-.15Z"/>
    <path class="cls-2" d="M19.78,18.16c-.06-.05-.08-.11-.04-.18,.07,.05,.07,.11,.04,.18Z"/>
    <path class="cls-2" d="M19.91,18.75s-.06-.09-.03-.14c.07,.03,.1,.08,.03,.14Z"/>
    <path class="cls-2" d="M17.37,22.17c.05,.05,.08,.11,.06,.19-.08-.04-.09-.11-.06-.19Z"/>
    <path class="cls-2" d="M17.19,21.74c.08,.04,.09,.11,.08,.19-.07-.04-.09-.11-.08-.19Z"/>
    <path class="cls-2" d="M17.27,21.93s.05,.04,.03,.07c0-.02-.02-.05-.03-.07Z"/>
    <path class="cls-2" d="M18.76,20.22c.02,.08,0,.12-.05,.14-.05,.02-.09,0-.13-.03-.18-.2-.36-.4-.54-.6-.06-.07-.02-.14,.05-.16,.19-.05,.22-.43,.5-.26,.22,.13,.39,.33,.56,.52,.05,.06,.08,.13,0,.18-.07,.05-.13,0-.18-.05-.12-.13-.24-.25-.37-.37-.05-.05-.11-.1-.18-.06-.08,.05-.07,.15-.03,.22,.06,.1,.14,.19,.21,.28,.06,.07,.11,.15,.16,.2Z"/>
    <path class="cls-2" d="M18.28,20.52c0,.21-.28,.5-.5,.5-.18,0-.52-.37-.5-.57,.02-.27,.2-.42,.46-.45,.2-.03,.53,.3,.54,.52Zm-.42,.31c.12-.06,.21-.14,.19-.27-.03-.19-.15-.32-.35-.33-.12,0-.22,.07-.19,.2,.05,.18,.16,.33,.35,.4Z"/>
    <path class="cls-2" d="M18.85,18.97c.31,.12,.42,.43,.62,.66,0,0,0,.02-.01,.03-.32-.02-.43-.26-.57-.49,0-.02-.01-.04-.02-.06,0-.05-.01-.1-.02-.14Z"/>
    <path class="cls-2" d="M18.87,19.11s.01,.04,.02,.06c-.01-.01-.03-.02-.04-.04,0,0,.01-.02,.02-.02Z"/>
    <path class="cls-2" d="M17.87,20.83c-.19-.07-.3-.22-.35-.4-.03-.12,.07-.2,.19-.2,.2,0,.32,.14,.35,.33,.02,.13-.07,.21-.19,.27Z"/>
  </g>
  <g>
    <path class="cls-1" d="M17.95,1.79c.05,0,.11,0,.16,0,.11,.05,.21,.06,.28-.05,.55-.09,1.11-.15,1.65-.29,.51-.13,1.01-.16,1.53-.16,1.09,0,2.18,.02,3.28,.03,.45,0,.71,.2,.73,.55,.02,.34-.22,.56-.67,.61-.99,.1-1.99,.19-2.98,.29-.12,.01-.3-.05-.32,.12-.01,.09,.15,.15,.26,.2,.27,.13,.55,.27,.82,.41,.42,.21,.86,.31,1.33,.28,.48-.03,.94,.06,1.36,.29,.17,.09,.35,.2,.22,.44-.11,.2-.28,.15-.46,.06-.36-.19-.75-.3-1.15-.26-.68,.07-1.3-.1-1.89-.42-.4-.22-.76-.37-1.31-.19-1.29,.42-2.64,.65-3.97,.95-.15,.03-.24,.08-.31,.24-.71,1.84-1.56,3.62-2.33,5.43-.18,.42-.37,.84-.55,1.26-.15,.35-.41,.55-.78,.56-.4,0-.67-.2-.82-.56-.95-2.24-2-4.43-2.88-6.69-.06-.16-.16-.2-.31-.23-1.32-.3-2.63-.61-3.95-.91-.07-.02-.17,0-.2-.05-.26-.33-.51-.11-.75,.02-.76,.4-1.52,.71-2.42,.61-.36-.04-.72,.1-1.04,.27-.17,.09-.32,.1-.42-.08-.11-.19,.02-.31,.17-.4,.41-.24,.85-.37,1.31-.32,.99,.11,1.76-.38,2.56-.9-.15-.11-.29-.09-.42-.11-.99-.1-1.99-.19-2.98-.29-.43-.04-.65-.27-.64-.6,.02-.33,.27-.55,.69-.54,1.47,.01,2.94-.15,4.4,.05,1.3,.17,2.59,.45,3.88,.7,.27,.05,.39,0,.53-.23C10.41,.45,11.99-.25,13.54,.08c.29,.06,.58,.17,.87,.25,.05,.03,.1,.06,.15,.09,.31,.2,.74,.28,.72,.79,0,.1,.1,.15,.18,.12,.31-.09,.39,.17,.52,.35,.06,.08,.21,.23-.06,.25-.11,0-.11,.11-.1,.19,0,.09,.08,.11,.15,.11,.13,0,.28,.08,.39-.06,.12,0,.2-.07,.28-.14,.25,.01,.48-.04,.71-.12,.09-.01,.18-.02,.28-.03,.13,.05,.25,.07,.33-.07Zm-7.17,1.83c-.02,1.12,.89,2.06,2.01,2.07,1.01,0,2.04-.74,2.06-2,.02-1.22-.9-2.05-1.99-2.07-1.12-.03-2.06,.88-2.07,2Z"/>
    <path class="cls-1" d="M14.41,.33s1.36,.51,1.81,1.92c0,0,1.28-.44,3.83-.79,0,0-.83,1.15-1.02,1.23s-2.57,.47-2.92,.27-.92-.43-1.07-.78-.53-1.12-.55-1.18-.09-.66-.09-.66Z"/>
  </g>
  <g>
    <path class="cls-1" d="M8.99,23.4c.21-2.14,2-3.55,3.9-3.51,1.11,.03,2.04,.47,2.79,1.29,.08,.09,.29,.19,.07,.37-.01,.01,.11,.19,.17,.3-.04,.02-.08,.05-.12,.07-.14,.07-.26,.16-.21,.35,.03,.12,.11,.22,.23,.23,.18,.01,.3-.09,.33-.28,.07,.01,.14,.02,.2,.03,0,.04,0,.05,.04,.04,.27,.78,.25,1.59,.25,2.4,0,1.48,0,2.96,0,4.44,0,1.98-1.41,3.64-3.27,3.86-2.05,.25-3.82-.96-4.3-2.96-.04-.16-.06-.32-.08-.49,0-2.05,0-4.1,0-6.14Zm6.65-1.84c-.2,.04-.23,.15-.17,.4,.11-.16,.17-.26,.23-.35,.01-.03,.05-.07,.04-.07-.04-.04-.08-.03-.1,.02Zm-.32,1.23c.11,0,.3,.04,.23-.14-.09-.23-.22-.47-.45-.61-.17-.11-.31,0-.44,.1-.1,.09-.13,.21-.06,.31,.08,.12,.21,.05,.31,.02,.24-.07,.32,.04,.34,.25-.07,.03-.12,.13-.21,.09-.07-.03-.16-.11-.15,.05,0,.09,.06,.19,.19,.15,.11-.04,.21-.1,.23-.24Zm-2.69,1.77c.12-.08,.19,.02,.28,.08,.07,.04,.14,.13,.21,.04,.07-.08-.01-.15-.07-.21-.21-.21-.42-.41-.62-.62-.06-.06-.13-.11-.21-.04-.08,.06-.12,.14-.07,.24,.09,.18,.18,.36,.26,.54,.02,.05,.08,.1,.02,.16-.07,.06-.1-.01-.15-.03-.18-.09-.35-.19-.53-.28-.12-.06-.2,0-.27,.08-.07,.09-.02,.16,.04,.22,.23,.23,.47,.46,.71,.68,.05,.05,.13,.08,.19,.01,.06-.07,0-.13-.03-.19-.06-.1-.21-.14-.21-.29,.24-.09,.42,.28,.61,.09,.17-.17-.17-.3-.15-.48Zm.89-2.02c-.13,.05-.16,.12-.1,.2,.22,.3,.41,.62,.68,.89,.06,.06,.11,.09,.2,.03,.11-.08,.04-.13,0-.19-.07-.09-.14-.19-.21-.28-.08-.11-.17-.24-.05-.34,.15-.11,.25,.03,.33,.14,.09,.11,.17,.23,.25,.34,.03,.04,.06,.07,.11,.03,.03-.03,.08-.07,.08-.11,.02-.12-.49-.69-.62-.68-.23,.03-.47,.4-.66-.04Zm.42,1.36c-.08-.27-.33-.38-.43-.6-.05-.11-.14-.14-.23-.07-.1,.08-.04,.16,.03,.24,.09,.11,.19,.21,.26,.33,.05,.08,.04,.19-.05,.25-.08,.06-.15,0-.21-.06-.1-.1-.2-.2-.29-.3-.09-.09-.16-.05-.24,0-.13,.09,0,.14,.04,.18,.12,.13,.25,.24,.37,.37,.11,.11,.25,.11,.35,.04,.16-.11,.28-.26,.4-.37Z"/>
    <path class="cls-1" d="M15.31,20.83s1.22,.89,1.27,2.29c0,0-1.48,1.42-1.79,1.59s-2.79,1.44-2.99,1.26-.6-1.49-.62-1.77-.58-.3,.17-.88,.8-.58,1.36-.9,1.27-.85,1.62-1.08,.54-.35,.74-.39,.25-.13,.25-.13Z"/>
  </g>
  <g>
    <path class="cls-1" d="M36.3,9.32c-.29,.53-.74,.96-1.35,1.28-.61,.33-1.36,.49-2.27,.49h-1.67v3.96h-2.69V4.01h4.36c.88,0,1.63,.15,2.23,.46,.61,.3,1.06,.72,1.37,1.26,.3,.53,.46,1.15,.46,1.84,0,.64-.15,1.22-.44,1.75Zm-2.67-.73c.25-.24,.38-.58,.38-1.02s-.13-.78-.38-1.02c-.25-.24-.63-.36-1.15-.36h-1.46v2.77h1.46c.51,0,.9-.12,1.15-.36Z"/>
    <path class="cls-1" d="M45.02,13.11h-4.12l-.66,1.95h-2.82l4-11.04h3.11l4,11.04h-2.85l-.66-1.95Zm-.69-2.08l-1.37-4.04-1.35,4.04h2.72Z"/>
    <path class="cls-1" d="M52.43,12.98h3.52v2.08h-6.21V4.01h2.69V12.98Z"/>
    <path class="cls-1" d="M59.61,14.44c-.87-.48-1.55-1.16-2.06-2.02-.51-.87-.76-1.84-.76-2.92s.25-2.05,.76-2.91c.51-.86,1.2-1.53,2.06-2.01s1.82-.72,2.85-.72,1.99,.24,2.86,.72,1.55,1.15,2.04,2.01c.5,.86,.75,1.83,.75,2.91s-.25,2.05-.75,2.92-1.19,1.54-2.04,2.02c-.86,.48-1.81,.72-2.85,.72s-1.99-.24-2.85-.72Zm4.97-2.61c.53-.59,.79-1.36,.79-2.33s-.26-1.75-.79-2.34c-.53-.58-1.23-.87-2.12-.87s-1.6,.29-2.13,.87c-.53,.58-.79,1.36-.79,2.34s.26,1.75,.79,2.34c.53,.58,1.24,.87,2.13,.87s1.59-.29,2.12-.88Z"/>
    <path class="cls-1" d="M77.58,9.32c-.29,.53-.74,.96-1.35,1.28s-1.36,.49-2.27,.49h-1.67v3.96h-2.69V4.01h4.36c.88,0,1.63,.15,2.23,.46,.61,.3,1.06,.72,1.37,1.26,.3,.53,.46,1.15,.46,1.84,0,.64-.15,1.22-.44,1.75Zm-2.67-.73c.25-.24,.38-.58,.38-1.02s-.13-.78-.38-1.02-.63-.36-1.15-.36h-1.46v2.77h1.46c.51,0,.9-.12,1.15-.36Z"/>
    <path class="cls-1" d="M81.79,14.44c-.87-.48-1.55-1.16-2.06-2.02-.51-.87-.76-1.84-.76-2.92s.25-2.05,.76-2.91c.51-.86,1.2-1.53,2.06-2.01,.86-.48,1.82-.72,2.85-.72s1.99,.24,2.86,.72,1.55,1.15,2.04,2.01c.5,.86,.75,1.83,.75,2.91s-.25,2.05-.76,2.92-1.19,1.54-2.04,2.02-1.81,.72-2.85,.72-1.99-.24-2.85-.72Zm4.97-2.61c.53-.59,.79-1.36,.79-2.33s-.27-1.75-.79-2.34-1.23-.87-2.12-.87-1.6,.29-2.13,.87c-.53,.58-.79,1.36-.79,2.34s.26,1.75,.79,2.34c.53,.58,1.24,.87,2.13,.87s1.59-.29,2.12-.88Z"/>
    <path class="cls-1" d="M105.49,4.01l-3.92,11.04h-3.37l-3.92-11.04h2.86l2.74,8.34,2.75-8.34h2.85Z"/>
    <path class="cls-1" d="M109.29,6.17v2.23h3.6v2.08h-3.6v2.42h4.07v2.16h-6.76V4.01h6.76v2.16h-4.07Z"/>
    <path class="cls-1" d="M116.94,14.77c-.64-.26-1.15-.65-1.53-1.16-.38-.51-.58-1.13-.61-1.86h2.86c.04,.41,.18,.72,.42,.94,.24,.22,.56,.32,.94,.32s.71-.09,.94-.28c.23-.18,.35-.44,.35-.76,0-.27-.09-.5-.28-.68-.18-.18-.41-.32-.68-.44-.27-.12-.65-.25-1.14-.39-.71-.22-1.29-.44-1.75-.66s-.84-.55-1.16-.98c-.33-.43-.49-.99-.49-1.68,0-1.03,.37-1.83,1.12-2.41,.75-.58,1.71-.87,2.91-.87s2.2,.29,2.94,.87c.74,.58,1.14,1.39,1.2,2.43h-2.91c-.02-.36-.15-.64-.39-.84-.24-.2-.55-.31-.93-.31-.33,0-.59,.09-.79,.26s-.3,.42-.3,.75c0,.36,.17,.63,.5,.83,.33,.2,.86,.41,1.57,.65,.71,.24,1.29,.47,1.74,.69,.45,.22,.83,.54,1.16,.96,.32,.42,.49,.96,.49,1.62s-.16,1.2-.48,1.71c-.32,.51-.78,.92-1.39,1.23-.61,.3-1.33,.46-2.16,.46s-1.53-.13-2.17-.39Z"/>
    <path class="cls-1" d="M132.76,9.32c-.29,.53-.75,.96-1.35,1.28s-1.36,.49-2.26,.49h-1.67v3.96h-2.69V4.01h4.36c.88,0,1.62,.15,2.23,.46,.61,.3,1.06,.72,1.37,1.26,.3,.53,.46,1.15,.46,1.84,0,.64-.15,1.22-.44,1.75Zm-2.67-.73c.25-.24,.38-.58,.38-1.02s-.13-.78-.38-1.02-.63-.36-1.15-.36h-1.46v2.77h1.46c.51,0,.9-.12,1.15-.36Z"/>
    <path class="cls-1" d="M141.48,13.11h-4.12l-.66,1.95h-2.82l4-11.04h3.12l4,11.04h-2.85l-.66-1.95Zm-.69-2.08l-1.37-4.04-1.35,4.04h2.72Z"/>
    <path class="cls-1" d="M28.58,20.6c.47-.85,1.13-1.52,1.97-2s1.8-.72,2.87-.72c1.31,0,2.43,.35,3.37,1.04,.93,.69,1.56,1.64,1.87,2.83h-2.96c-.22-.46-.53-.81-.94-1.05-.4-.24-.86-.36-1.38-.36-.83,0-1.5,.29-2.01,.87-.51,.58-.77,1.35-.77,2.31s.26,1.74,.77,2.31c.51,.58,1.19,.87,2.01,.87,.51,0,.97-.12,1.38-.36s.72-.59,.94-1.05h2.96c-.31,1.2-.94,2.14-1.87,2.82-.93,.69-2.06,1.03-3.37,1.03-1.07,0-2.03-.24-2.87-.72-.84-.48-1.5-1.14-1.97-1.99-.47-.85-.71-1.82-.71-2.91s.24-2.06,.71-2.92Z"/>
    <path class="cls-1" d="M45.2,26.98h3.52v2.08h-6.21v-11.04h2.69v8.97Z"/>
    <path class="cls-1" d="M54.86,18.01v6.61c0,.66,.16,1.17,.49,1.53,.32,.36,.8,.54,1.43,.54s1.11-.18,1.45-.54,.5-.87,.5-1.53v-6.61h2.69v6.59c0,.99-.21,1.82-.63,2.5s-.98,1.2-1.69,1.54c-.71,.35-1.5,.52-2.37,.52s-1.65-.17-2.34-.51-1.23-.85-1.63-1.54c-.4-.69-.6-1.52-.6-2.51v-6.59h2.69Z"/>
    <path class="cls-1" d="M73.74,24.35c.39,.5,.58,1.07,.58,1.71,0,.92-.32,1.65-.97,2.19-.64,.54-1.54,.81-2.7,.81h-5.14v-11.04h4.97c1.12,0,2,.26,2.63,.77,.63,.51,.95,1.21,.95,2.09,0,.65-.17,1.19-.51,1.62s-.79,.73-1.36,.9c.64,.14,1.15,.45,1.54,.95Zm-5.54-1.86h1.76c.44,0,.78-.1,1.01-.29,.24-.19,.35-.48,.35-.86s-.12-.67-.35-.87c-.24-.2-.57-.3-1.01-.3h-1.76v2.31Zm3.03,4.1c.25-.2,.37-.5,.37-.89s-.13-.69-.39-.91c-.26-.22-.61-.33-1.06-.33h-1.95v2.44h1.98c.45,0,.8-.1,1.05-.31Z"/>
  </g>
</svg>