<?xml version="1.0" encoding="UTF-8"?>
<svg id="Layer_1" data-name="Layer 1" xmlns="http://www.w3.org/2000/svg" viewBox="0 0 102.27 7.34">
  <defs>
    <style>
      .cls-1 {
        fill: #435ebe;
      }
    </style>
  </defs>
  <path class="cls-1" d="M5.53,3.8c-.21,.37-.52,.66-.92,.87-.41,.22-.9,.32-1.48,.32h-.89v2.27H0V.12H3.13c.88,0,1.55,.22,2.02,.67,.47,.45,.7,1.04,.7,1.79,0,.45-.1,.86-.31,1.23Zm-1.96-1.23c0-.44-.23-.66-.7-.66h-.64v1.31h.64c.46,0,.7-.22,.7-.66Z"/>
  <path class="cls-1" d="M10.94,6.19h-2.38l-.35,1.08h-2.35L8.46,.12h2.59l2.61,7.15h-2.36l-.35-1.08Zm-.55-1.69l-.65-1.99-.65,1.99h1.29Z"/>
  <path class="cls-1" d="M16.2,5.58h2.16v1.7h-4.4V.12h2.24V5.58Z"/>
  <path class="cls-1" d="M20.5,6.87c-.56-.32-1.01-.75-1.34-1.31-.33-.56-.49-1.19-.49-1.89s.16-1.33,.49-1.89c.33-.56,.78-1,1.34-1.31,.56-.31,1.18-.47,1.85-.47s1.29,.16,1.85,.47c.56,.31,1,.75,1.33,1.31s.49,1.19,.49,1.89-.16,1.33-.49,1.89-.77,1-1.33,1.31c-.56,.32-1.18,.47-1.84,.47s-1.29-.16-1.85-.47Zm2.88-2.04c.24-.29,.36-.67,.36-1.16s-.12-.88-.36-1.17c-.24-.29-.59-.43-1.03-.43s-.8,.14-1.04,.43c-.24,.29-.36,.68-.36,1.17s.12,.87,.36,1.16c.24,.29,.59,.43,1.04,.43s.79-.14,1.03-.43Z"/>
  <path class="cls-1" d="M32.16,3.8c-.21,.37-.52,.66-.92,.87-.41,.22-.9,.32-1.48,.32h-.89v2.27h-2.24V.12h3.13c.88,0,1.55,.22,2.02,.67,.47,.45,.7,1.04,.7,1.79,0,.45-.1,.86-.31,1.23Zm-1.96-1.23c0-.44-.23-.66-.7-.66h-.64v1.31h.64c.46,0,.7-.22,.7-.66Z"/>
  <path class="cls-1" d="M34.61,6.87c-.56-.32-1.01-.75-1.34-1.31-.33-.56-.49-1.19-.49-1.89s.16-1.33,.49-1.89c.33-.56,.78-1,1.34-1.31,.56-.31,1.18-.47,1.85-.47s1.29,.16,1.85,.47c.56,.31,1,.75,1.33,1.31s.49,1.19,.49,1.89-.16,1.33-.49,1.89-.77,1-1.33,1.31c-.56,.32-1.18,.47-1.84,.47s-1.29-.16-1.85-.47Zm2.88-2.04c.24-.29,.36-.67,.36-1.16s-.12-.88-.36-1.17c-.24-.29-.59-.43-1.03-.43s-.8,.14-1.04,.43c-.24,.29-.36,.68-.36,1.17s.12,.87,.36,1.16c.24,.29,.59,.43,1.04,.43s.79-.14,1.03-.43Z"/>
  <path class="cls-1" d="M49.45,.12l-2.4,7.15h-2.9L41.74,.12h2.38l1.47,4.92L47.06,.12h2.38Z"/>
  <path class="cls-1" d="M51.99,1.91v.88h2.22v1.69h-2.22v1.01h2.53v1.79h-4.77V.12h4.77V1.91h-2.53Z"/>
  <path class="cls-1" d="M55.85,6.74c-.56-.4-.86-.99-.9-1.76h2.38c.03,.41,.22,.62,.55,.62,.12,0,.22-.03,.31-.09,.08-.06,.13-.15,.13-.27,0-.17-.09-.3-.27-.41-.18-.1-.46-.22-.85-.36-.46-.16-.84-.32-1.14-.47-.3-.15-.56-.38-.77-.68-.22-.3-.32-.68-.31-1.14,0-.46,.12-.86,.36-1.19,.24-.33,.57-.57,.98-.74,.41-.17,.88-.25,1.4-.25,.88,0,1.57,.2,2.09,.61,.51,.4,.79,.97,.81,1.71h-2.41c0-.2-.06-.35-.15-.43-.09-.09-.21-.13-.34-.13-.09,0-.17,.03-.23,.1-.06,.06-.09,.15-.09,.27,0,.16,.09,.29,.27,.4,.18,.1,.46,.23,.85,.38,.45,.17,.82,.33,1.12,.48s.55,.37,.76,.65,.32,.62,.32,1.04c0,.44-.11,.83-.32,1.18s-.53,.62-.94,.81c-.41,.2-.9,.29-1.46,.29-.86,0-1.56-.2-2.12-.6Z"/>
  <path class="cls-1" d="M66.81,3.8c-.21,.37-.52,.66-.92,.87-.41,.22-.9,.32-1.48,.32h-.89v2.27h-2.24V.12h3.13c.88,0,1.55,.22,2.01,.67,.47,.45,.7,1.04,.7,1.79,0,.45-.1,.86-.31,1.23Zm-1.96-1.23c0-.44-.23-.66-.7-.66h-.64v1.31h.64c.46,0,.7-.22,.7-.66Z"/>
  <path class="cls-1" d="M72.21,6.19h-2.38l-.35,1.08h-2.35L69.74,.12h2.58l2.61,7.15h-2.36l-.35-1.08Zm-.54-1.69l-.65-1.99-.65,1.99h1.29Z"/>
  <path class="cls-1" d="M76.97,1.8c.29-.55,.7-.98,1.23-1.29,.53-.31,1.16-.46,1.88-.46,.62,0,1.17,.12,1.66,.35s.89,.56,1.19,.99c.31,.42,.51,.92,.61,1.48h-2.36c-.11-.24-.26-.42-.46-.55-.2-.13-.43-.2-.68-.2-.38,0-.68,.14-.89,.42s-.33,.66-.33,1.14,.11,.86,.33,1.14c.22,.28,.52,.42,.89,.42,.26,0,.48-.07,.68-.2,.2-.13,.35-.31,.46-.55h2.36c-.1,.57-.3,1.06-.61,1.49-.31,.42-.7,.75-1.19,.98s-1.04,.35-1.66,.35c-.72,0-1.35-.15-1.88-.46-.53-.31-.94-.74-1.23-1.29-.29-.55-.43-1.18-.43-1.89s.14-1.34,.43-1.89Z"/>
  <path class="cls-1" d="M86.39,5.58h2.16v1.7h-4.4V.12h2.24V5.58Z"/>
  <path class="cls-1" d="M91.25,.12V4.15c0,.33,.07,.59,.22,.78,.14,.19,.38,.29,.7,.29s.56-.1,.72-.29c.15-.19,.23-.45,.23-.78V.12h2.23V4.15c0,.68-.14,1.26-.42,1.74-.28,.48-.67,.84-1.16,1.09-.49,.24-1.04,.36-1.65,.36s-1.14-.12-1.61-.36-.83-.6-1.1-1.08c-.26-.48-.39-1.06-.39-1.75V.12h2.23Z"/>
  <path class="cls-1" d="M101.91,4.23c.24,.31,.36,.67,.36,1.09,0,.63-.21,1.11-.62,1.45s-1.01,.51-1.78,.51h-3.75V.12h3.65c.73,0,1.3,.16,1.72,.47,.42,.32,.63,.78,.63,1.38,0,.42-.11,.77-.33,1.06s-.51,.48-.87,.57c.43,.1,.77,.31,1,.62Zm-3.55-1.32h.87c.2,0,.35-.04,.45-.12s.15-.21,.15-.37-.05-.3-.15-.39c-.1-.08-.25-.13-.45-.13h-.87v1.01Zm1.47,2.45c.1-.08,.15-.2,.15-.38,0-.34-.2-.51-.6-.51h-1.02v1.01h1.02c.2,0,.35-.04,.45-.12Z"/>
</svg>