<?xml version="1.0" encoding="UTF-8"?>
<svg id="Layer_1" data-name="Layer 1" xmlns="http://www.w3.org/2000/svg" viewBox="0 0 512 512">
  <defs>
    <style>
      .cls-1 {
        fill: #fff;
      }
    </style>
  </defs>
  <path class="cls-1" d="M85.33,426.67C38.27,426.67,0,388.39,0,341.33V85.33C0,38.27,38.27,0,85.33,0s85.33,38.27,85.33,85.33V341.33c0,47.06-38.27,85.33-85.33,85.33ZM405.33,42.67H206.02c4.74,13.35,7.32,27.71,7.32,42.67V341.33c0,70.59-57.41,128-128,128-29.7,0-57.05-10.15-78.78-27.18,15.02,40.73,54.23,69.85,100.12,69.85H405.33c58.82,0,106.67-47.85,106.67-106.67V149.33c0-58.82-47.85-106.67-106.67-106.67Zm-128,384c-11.78,0-21.33-9.56-21.33-21.33s9.56-21.33,21.33-21.33,21.33,9.56,21.33,21.33-9.56,21.33-21.33,21.33Zm0-85.33c-11.78,0-21.33-9.56-21.33-21.33s9.56-21.33,21.33-21.33,21.33,9.56,21.33,21.33-9.56,21.33-21.33,21.33Zm0-85.33c-11.78,0-21.33-9.56-21.33-21.33s9.56-21.33,21.33-21.33,21.33,9.56,21.33,21.33-9.56,21.33-21.33,21.33Zm85.33,170.67c-11.78,0-21.33-9.56-21.33-21.33s9.56-21.33,21.33-21.33,21.33,9.56,21.33,21.33-9.56,21.33-21.33,21.33Zm0-85.33c-11.78,0-21.33-9.56-21.33-21.33s9.56-21.33,21.33-21.33,21.33,9.56,21.33,21.33-9.56,21.33-21.33,21.33Zm0-85.33c-11.78,0-21.33-9.56-21.33-21.33s9.56-21.33,21.33-21.33,21.33,9.56,21.33,21.33-9.56,21.33-21.33,21.33Zm85.33,170.67c-11.78,0-21.33-9.56-21.33-21.33s9.56-21.33,21.33-21.33,21.33,9.56,21.33,21.33-9.56,21.33-21.33,21.33Zm0-85.33c-11.78,0-21.33-9.56-21.33-21.33s9.56-21.33,21.33-21.33,21.33,9.56,21.33,21.33-9.56,21.33-21.33,21.33Zm0-85.33c-11.78,0-21.33-9.56-21.33-21.33s9.56-21.33,21.33-21.33,21.33,9.56,21.33,21.33-9.56,21.33-21.33,21.33Zm-106.67-106.67c-11.78,0-21.33-9.56-21.33-21.33v-42.67h85.33c35.29,0,64,28.71,64,64h-128Z"/>
</svg>